<svg width="1000" height="234" viewBox="0 0 1000 234" fill="none" xmlns="http://www.w3.org/2000/svg">
<mask id="mask0_1002_986" style="mask-type:luminance" maskUnits="userSpaceOnUse" x="0" y="0" width="1000" height="234">
<path d="M1000 0H0V234H1000V0Z" fill="white"/>
</mask>
<g mask="url(#mask0_1002_986)">
<path d="M454.366 183.159L418.426 86.7535H439.485L454.508 130.661L465.173 163.137H465.57C469.944 149.789 473.153 142.731 477.513 128.602L491.628 86.7393H511.65L474.545 183.145H454.381L454.366 183.159Z" fill="#FF4512"/>
<path d="M526.525 139.778C527.036 156.733 538.467 170.081 556.828 170.081C570.048 170.081 576.467 163.791 581.48 155.569H599.968C594.714 173.021 579.037 185.489 556.061 185.489C526.269 185.489 507.78 165.466 507.78 135.418C507.78 105.371 527.306 84.0559 556.061 84.0559C587.515 84.0559 602.013 107.941 602.013 133.871V139.906H526.525V139.778ZM582.758 125.137C581.082 109.73 571.724 99.0798 555.805 99.0798C539.887 99.0798 529.365 108.963 527.306 125.137H582.772H582.758Z" fill="#FF4512"/>
<path d="M629.123 86.7535V99.0793C632.205 90.0905 641.449 86.7535 652.497 86.7535C654.94 86.7535 655.962 86.8813 657.24 87.1511V101.664C655.564 101.153 652.866 101.153 650.821 101.153C633.369 101.153 630.018 113.99 630.018 133.245V183.173H611.529V95.3447C611.529 92.6466 611.529 89.6929 611.401 86.7393H629.123V86.7535Z" fill="#FF4512"/>
<path d="M678.622 101.116H665.785V86.8733H678.622V80.0713C678.622 62.2216 687.995 50.6768 706.356 50.6768C708.528 50.6768 710.971 50.8045 713.285 51.188V66.3397C711.879 66.2119 710.587 65.9421 709.039 65.9421C701.726 65.9421 697.097 69.4069 697.097 76.7201V86.859H713.271V101.244H697.097V183.279H678.608V101.13L678.622 101.116Z" fill="#FF4512"/>
<path d="M726.438 133.984V51.8354L744.927 51.8355V158.38C744.927 165.693 749.542 169.158 756.869 169.158C758.403 169.158 759.695 168.903 761.115 168.761V183.912C758.8 184.296 756.372 184.423 754.185 184.423C735.824 184.423 726.452 172.879 726.452 155.029V133.984H726.438Z" fill="#FF4512"/>
<path d="M877.236 86.7535L892.516 141.055C894.56 148.241 896.236 154.659 898.551 164.159H899.062C901.107 154.787 903.038 147.985 905.353 139.38L918.573 86.7393H938.34L947.712 123.972C950.666 136.298 953.619 149.647 957.468 164.159H957.865L963.389 143.626L965.065 137.974L979.705 86.7535H998.833L968.146 183.159H946.065C941.052 165.963 932.319 130.135 928.471 111.902H927.96C920.646 143.484 912.68 168.647 909.087 183.159H888.028C877.506 151.706 867.864 118.321 857.597 86.7535H877.25H877.236Z" fill="#FF4512"/>
<path d="M348.954 67.7549C376.304 67.7549 398.641 90.092 398.641 117.442C398.641 144.792 376.304 167.129 348.954 167.129C321.604 167.129 299.267 144.905 299.267 117.442C299.267 89.9784 321.604 67.7549 348.954 67.7549ZM348.954 49.2661C311.337 49.2661 280.778 79.8251 280.778 117.442C280.778 155.058 311.337 185.617 348.954 185.617C386.57 185.617 417.129 155.058 417.129 117.442C417.129 79.8252 386.556 49.2662 348.954 49.2661Z" fill="#FF4512"/>
<path d="M810.996 102.673C828.846 102.673 843.23 117.185 843.23 134.907C843.23 152.629 828.718 167.142 810.996 167.142C793.274 167.142 778.761 152.629 778.761 134.907C778.761 117.185 793.274 102.673 810.996 102.673ZM810.996 84.1841C783.007 84.1841 760.287 106.919 760.287 134.893C760.287 162.868 783.021 185.602 810.996 185.602C838.97 185.602 861.705 162.868 861.705 134.893C861.705 106.919 839.112 84.1841 810.996 84.1841Z" fill="#FF4512"/>
<path d="M990.358 185.474C988.611 185.474 986.993 185.034 985.53 184.168C984.067 183.302 982.889 182.137 982.022 180.661C981.156 179.198 980.716 177.579 980.716 175.832C980.716 174.086 981.156 172.467 982.022 170.99C982.889 169.513 984.053 168.335 985.53 167.469C986.993 166.602 988.611 166.162 990.358 166.162C992.105 166.162 993.724 166.602 995.186 167.469C996.649 168.335 997.827 169.499 998.694 170.976C999.56 172.439 1000 174.072 1000 175.832C1000 177.593 999.56 179.198 998.694 180.661C997.827 182.123 996.663 183.302 995.186 184.168C993.724 185.034 992.105 185.474 990.358 185.474ZM990.358 183.785C991.792 183.785 993.113 183.43 994.334 182.705C995.555 181.981 996.507 181.03 997.231 179.809C997.955 178.587 998.296 177.267 998.296 175.832C998.296 174.398 997.941 173.078 997.231 171.842C996.521 170.621 995.555 169.655 994.334 168.931C993.113 168.207 991.792 167.852 990.358 167.852C988.924 167.852 987.603 168.207 986.396 168.931C985.189 169.655 984.224 170.621 983.499 171.842C982.775 173.063 982.42 174.398 982.42 175.832C982.42 177.267 982.775 178.587 983.499 179.809C984.224 181.03 985.175 181.981 986.396 182.705C987.617 183.43 988.924 183.785 990.358 183.785ZM986.794 180.533V171.118H991.324C992.275 171.118 992.999 171.359 993.525 171.842C994.05 172.325 994.306 172.978 994.306 173.816C994.306 174.341 994.164 174.796 993.865 175.193C993.581 175.591 993.184 175.875 992.673 176.045C993.141 176.187 993.496 176.443 993.724 176.798C993.951 177.167 994.079 177.693 994.093 178.346C994.135 179.028 994.164 179.496 994.192 179.752C994.221 180.007 994.263 180.22 994.334 180.391V180.519H992.545C992.431 180.263 992.36 179.766 992.332 178.971L992.303 178.474C992.303 177.877 992.176 177.451 991.92 177.181C991.664 176.926 991.281 176.784 990.741 176.784H988.455V180.519H986.751H986.78L986.794 180.533ZM991.096 175.421C991.579 175.421 991.963 175.307 992.218 175.066C992.474 174.824 992.616 174.455 992.616 173.972C992.616 173.489 992.488 173.149 992.218 172.907C991.948 172.666 991.579 172.552 991.111 172.552H988.512V175.421H991.111H991.096Z" fill="#FF4512"/>
<path d="M232.843 107.018C232.496 104.084 231.956 101.073 231.262 97.9843C220.582 51.7721 173.39 8.3396 125.889 1.04294C114.168 -0.77157 103.565 -0.153862 94.3117 2.39418C90.3019 4.59476 86.6391 7.33583 83.3619 10.6946C69.3276 25.0949 66.089 47.1007 72.335 70.1103C73.1061 70.2647 73.9158 70.3805 74.6869 70.5349C75.1881 70.6507 75.6894 70.7666 76.1906 70.8824C77.3087 71.114 78.4268 71.3843 79.5063 71.6931C80.0847 71.8475 80.6245 72.002 81.2028 72.1564C82.3209 72.4653 83.4005 72.8127 84.5186 73.1216C85.0199 73.276 85.521 73.4304 86.0223 73.5848C87.5259 74.0867 89.0681 74.6272 90.5718 75.2063C90.6104 75.2063 90.6875 75.2449 90.7261 75.2835C92.4225 75.9399 94.1576 76.6348 95.854 77.4069C96.3167 77.5999 96.7793 77.8316 97.242 78.0246C98.5914 78.6423 99.9409 79.26 101.252 79.9163C101.637 80.1094 102.023 80.3024 102.408 80.4954C104.066 81.3448 105.686 82.2327 107.305 83.1207C107.652 83.3137 107.999 83.5454 108.385 83.7384C109.696 84.5105 111.006 85.2827 112.279 86.0934C112.741 86.3636 113.166 86.6725 113.628 86.9428C115.17 87.9465 116.751 88.9889 118.255 90.0313C118.255 90.0313 118.332 90.0699 118.332 90.1085C119.874 91.1895 121.416 92.3477 122.92 93.5059C123.344 93.8147 123.768 94.1622 124.192 94.471C125.388 95.3976 126.583 96.3628 127.74 97.3279C128.087 97.5982 128.395 97.8684 128.742 98.1773C130.169 99.4127 131.595 100.648 132.983 101.961C133.292 102.231 133.6 102.54 133.87 102.81C134.988 103.891 136.106 104.972 137.224 106.092C137.61 106.478 137.957 106.825 138.342 107.211C139.692 108.601 141.003 109.991 142.275 111.419C142.314 111.497 142.391 111.535 142.429 111.612C143.663 113.002 144.82 114.392 145.976 115.782C146.323 116.207 146.632 116.593 146.979 117.017C147.981 118.253 148.945 119.488 149.871 120.762C150.063 121.032 150.295 121.341 150.526 121.612C151.644 123.117 152.685 124.661 153.726 126.206C153.996 126.592 154.227 126.978 154.497 127.364C155.307 128.599 156.117 129.873 156.849 131.147C157.08 131.572 157.35 131.958 157.582 132.383C158.507 133.966 159.432 135.587 160.281 137.209C160.396 137.44 160.512 137.71 160.628 137.942C161.36 139.371 162.054 140.799 162.71 142.227C162.941 142.768 163.172 143.27 163.404 143.81C163.789 144.66 164.136 145.47 164.483 146.32C164.715 146.899 164.946 147.478 165.177 148.057C165.524 148.945 165.833 149.794 166.141 150.682C166.334 151.223 166.565 151.802 166.719 152.342C167.028 153.308 167.336 154.273 167.645 155.238C167.799 155.701 167.953 156.164 168.069 156.628C168.107 156.821 168.146 156.975 168.223 157.168C168.57 158.442 168.917 159.716 169.226 160.99C169.495 162.11 169.727 163.23 169.92 164.349C167.799 164.195 165.64 163.963 163.442 163.616C137.88 159.678 112.433 144.66 93.425 124.353C80.3546 110.068 71.0626 94.085 65.7805 78.1404C59.1104 57.9492 58.9177 37.9123 65.8577 21.5817L12.805 80.8815C1.39248 93.6217 -3.04147 112.693 2.16356 135.24C2.51056 136.784 2.93466 138.328 3.35877 139.834C3.513 140.336 3.6672 140.838 3.82142 141.34C4.12987 142.382 4.43832 143.386 4.78532 144.428C4.9781 145.007 5.20944 145.625 5.40222 146.204C5.74922 147.131 6.05775 148.057 6.4433 148.984C6.67464 149.601 6.94454 150.219 7.17587 150.837C7.56143 151.725 7.90835 152.613 8.2939 153.501C8.40957 153.809 8.56382 154.118 8.67948 154.427C8.79515 154.697 8.9108 154.929 9.02647 155.199C9.72047 156.744 10.4531 158.249 11.2242 159.755C11.3398 159.987 11.4555 160.257 11.6098 160.488C12.4965 162.226 13.4604 163.924 14.4628 165.623C14.7327 166.048 15.0026 166.511 15.2725 166.936C16.0822 168.287 16.9305 169.638 17.7787 170.951C18.0486 171.376 18.3184 171.762 18.5883 172.186C19.6679 173.846 20.8246 175.468 21.9813 177.089C22.2126 177.398 22.4439 177.707 22.6752 178.016C23.6777 179.367 24.6801 180.68 25.7596 181.992C26.1066 182.417 26.4537 182.88 26.8007 183.305C28.0345 184.811 29.3068 186.316 30.6177 187.783C30.6563 187.822 30.7334 187.899 30.772 187.976C32.1214 189.482 33.5094 190.988 34.9359 192.455C35.3215 192.841 35.7071 193.265 36.0927 193.652C37.2493 194.81 38.4445 195.968 39.6397 197.126C39.8711 197.358 40.0639 197.551 40.2952 197.782C40.3723 197.86 40.488 197.937 40.5651 198.014C42.0303 199.365 43.5339 200.717 45.0761 202.029C45.4231 202.338 45.8087 202.608 46.1557 202.917C47.3894 203.96 48.6232 204.963 49.8956 205.967C50.3582 206.315 50.7824 206.662 51.245 207.009C52.8644 208.245 54.4452 209.442 56.1031 210.6C56.1417 210.6 56.1801 210.677 56.2572 210.677C57.8766 211.797 59.496 212.878 61.1153 213.959C61.578 214.267 62.0792 214.576 62.5418 214.847C63.8913 215.696 65.2793 216.545 66.6673 217.317C67.0529 217.549 67.4385 217.781 67.7855 217.974C69.5205 218.939 71.2554 219.865 72.9904 220.792C73.4145 220.985 73.8001 221.178 74.2242 221.41C75.6508 222.105 77.0388 222.8 78.4654 223.417C78.9666 223.649 79.4678 223.881 79.969 224.074C81.7811 224.846 83.5548 225.618 85.3669 226.313C85.444 226.313 85.4825 226.351 85.5596 226.39C87.1404 227.008 88.7597 227.548 90.3405 228.089C90.8803 228.282 91.3815 228.436 91.9213 228.591C93.078 228.938 94.2346 229.324 95.4299 229.633C96.0082 229.787 96.6251 229.942 97.2034 230.096C98.3601 230.405 99.5553 230.675 100.712 230.946C101.252 231.061 101.792 231.177 102.331 231.293C104.028 231.64 105.724 231.949 107.421 232.22C109.387 232.528 111.315 232.721 113.204 232.915C113.705 232.953 114.207 232.992 114.708 233.03C116.366 233.146 117.985 233.223 119.604 233.262C119.836 233.262 120.105 233.262 120.337 233.262C122.149 233.262 123.923 233.223 125.658 233.108C126.12 233.108 126.544 233.03 126.968 232.992C128.395 232.876 129.822 232.721 131.171 232.528C131.402 232.528 131.672 232.49 131.904 232.451C132.019 232.451 132.096 232.413 132.212 232.374C133.677 232.142 135.142 231.834 136.569 231.525C136.839 231.447 137.07 231.37 137.301 231.332C138.458 231.061 139.615 230.714 140.733 230.366C141.196 230.212 141.62 230.058 142.044 229.942C142.969 229.633 143.894 229.285 144.82 228.938C145.244 228.784 145.668 228.591 146.092 228.436C147.133 228.011 148.136 227.51 149.099 227.046C149.331 226.93 149.601 226.815 149.832 226.699C151.027 226.081 152.184 225.386 153.302 224.691C153.61 224.498 153.88 224.305 154.189 224.112C154.998 223.572 155.808 222.993 156.618 222.414C156.965 222.143 157.312 221.873 157.659 221.603C158.391 221.024 159.085 220.406 159.779 219.788C160.088 219.518 160.396 219.248 160.666 218.978C161.63 218.09 162.517 217.163 163.404 216.198L217.729 155.47L220.466 152.381C220.466 152.381 220.235 152.613 220.119 152.767C230.221 141.726 235.002 125.858 232.688 107.057L232.843 107.018Z" fill="#FF4512"/>
</g>
</svg>
